<svg width="24" height="25" viewBox="0 0 24 25" fill="none" xmlns="http://www.w3.org/2000/svg">
<path d="M12.0361 22.9131C17.9732 22.9131 22.7861 18.1001 22.7861 12.1631C22.7861 6.22603 17.9732 1.41309 12.0361 1.41309C6.09907 1.41309 1.28613 6.22603 1.28613 12.1631C1.28613 18.1001 6.09907 22.9131 12.0361 22.9131Z" stroke="black" stroke-width="0.8" stroke-linecap="round" stroke-linejoin="round"/>
<path d="M8.38368 13.2143C8.38687 13.7911 8.16084 14.3455 7.75531 14.7556C7.34977 15.1658 6.79794 15.398 6.22118 15.4013H6.20918C5.63233 15.4013 5.07911 15.1722 4.67122 14.7643C4.26333 14.3564 4.03418 13.8032 4.03418 13.2263V11.0763C4.03418 10.4995 4.26333 9.94626 4.67122 9.53836C5.07911 9.13047 5.63233 8.90132 6.20918 8.90132C6.78603 8.90132 7.33925 9.13047 7.74714 9.53836C8.15503 9.94626 8.38418 10.4995 8.38418 11.0763V11.0883M15.6227 15.3773L17.8147 8.90632L19.9142 15.3963M19.2127 13.2258H16.3512M6.86918 7.02182L6.39018 8.02182M6.86918 7.02182L4.39668 4.65332M6.86918 7.02182L12.0002 5.22432L17.1312 7.02182M17.1312 7.02182L19.6037 4.65332M17.1312 7.02182L17.6102 8.02132M17.1317 17.2808L17.6102 16.2808M17.1317 17.2808L19.6037 19.6493M17.1317 17.2808L12.0002 19.0783L6.86918 17.2808M6.86918 17.2808L4.39668 19.6493M6.86918 17.2808L6.39018 16.2813" stroke="black" stroke-width="0.8" stroke-linecap="round" stroke-linejoin="round"/>
</svg>
