<svg width="24" height="25" viewBox="0 0 24 25" fill="none" xmlns="http://www.w3.org/2000/svg">
<path d="M19.5 4.15137H16.5V2.65137C16.5 2.51876 16.4473 2.39158 16.3536 2.29781C16.2598 2.20405 16.1326 2.15137 16 2.15137C15.8674 2.15137 15.7402 2.20405 15.6464 2.29781C15.5527 2.39158 15.5 2.51876 15.5 2.65137V4.15137H8.5V2.65137C8.5 2.51876 8.44732 2.39158 8.35355 2.29781C8.25979 2.20405 8.13261 2.15137 8 2.15137C7.86739 2.15137 7.74021 2.20405 7.64645 2.29781C7.55268 2.39158 7.5 2.51876 7.5 2.65137V4.15137H4.5C3.8372 4.15216 3.20178 4.41581 2.73311 4.88448C2.26444 5.35315 2.00079 5.98857 2 6.65137V19.6514C2.00079 20.3142 2.26444 20.9496 2.73311 21.4183C3.20178 21.8869 3.8372 22.1506 4.5 22.1514H19.5C20.1629 22.1508 20.7985 21.8873 21.2672 21.4185C21.7359 20.9498 21.9995 20.3142 22 19.6514V6.65137C21.9995 5.98849 21.7359 5.35291 21.2672 4.88419C20.7985 4.41546 20.1629 4.1519 19.5 4.15137ZM21 19.6514C21 20.0492 20.842 20.4307 20.5607 20.712C20.2794 20.9933 19.8978 21.1514 19.5 21.1514H4.5C4.10218 21.1514 3.72064 20.9933 3.43934 20.712C3.15804 20.4307 3 20.0492 3 19.6514V11.1514H21V19.6514ZM21 10.1514H3V6.65137C3 5.82337 3.67 5.15137 4.5 5.15137H7.5V6.65137C7.5 6.78398 7.55268 6.91115 7.64645 7.00492C7.74021 7.09869 7.86739 7.15137 8 7.15137C8.13261 7.15137 8.25979 7.09869 8.35355 7.00492C8.44732 6.91115 8.5 6.78398 8.5 6.65137V5.15137H15.5V6.65137C15.5 6.78398 15.5527 6.91115 15.6464 7.00492C15.7402 7.09869 15.8674 7.15137 16 7.15137C16.1326 7.15137 16.2598 7.09869 16.3536 7.00492C16.4473 6.91115 16.5 6.78398 16.5 6.65137V5.15137H19.5C19.8978 5.15137 20.2794 5.3094 20.5607 5.59071C20.842 5.87201 21 6.25354 21 6.65137V10.1514Z" fill="black"/>
</svg>
