<svg width="25" height="21" viewBox="0 0 25 21" fill="none" xmlns="http://www.w3.org/2000/svg">
<g clip-path="url(#clip0_175_900)">
<path d="M22.3353 9.18146C22.3655 9.3889 22.3864 9.59738 22.3977 9.80646H21.448C21.442 9.59657 21.431 9.38819 21.4153 9.18146M22.3353 9.18146H21.4153M22.3353 9.18146C22.1789 8.11093 21.7717 7.06805 21.1273 6.1143M22.3353 9.18146H20.6754H21.4153M21.4153 9.18146C21.3372 8.15932 21.141 7.17765 20.8461 6.25446M20.8461 6.25446C20.9408 6.20853 21.0345 6.1618 21.1273 6.1143M20.8461 6.25446C20.6299 6.35932 20.4085 6.46002 20.1819 6.5562L21.1273 6.1143M20.8461 6.25446C20.7796 6.04625 20.708 5.84101 20.6317 5.63895C20.6672 5.62107 20.7025 5.60307 20.7377 5.58496C20.8759 5.75797 21.0058 5.93455 21.1273 6.1143" fill="white" stroke="white" stroke-width="2"/>
</g>
<defs>
<clipPath id="clip0_175_900">
<rect width="23.6364" height="20" fill="white" transform="translate(0.510132 0.181458)"/>
</clipPath>
</defs>
</svg>
