<svg width="20" height="21" viewBox="0 0 20 21" fill="none" xmlns="http://www.w3.org/2000/svg">
<path d="M10 2.43262C8.93913 2.43262 7.92172 2.85404 7.17157 3.60419C6.42143 4.35434 6 5.37175 6 6.43262C6 7.49348 6.42143 8.5109 7.17157 9.26104C7.92172 10.0112 8.93913 10.4326 10 10.4326C11.0609 10.4326 12.0783 10.0112 12.8284 9.26104C13.5786 8.5109 14 7.49348 14 6.43262C14 5.37175 13.5786 4.35434 12.8284 3.60419C12.0783 2.85404 11.0609 2.43262 10 2.43262ZM7 6.43262C7 5.63697 7.31607 4.87391 7.87868 4.3113C8.44129 3.74869 9.20435 3.43262 10 3.43262C10.7956 3.43262 11.5587 3.74869 12.1213 4.3113C12.6839 4.87391 13 5.63697 13 6.43262C13 7.22827 12.6839 7.99133 12.1213 8.55394C11.5587 9.11655 10.7956 9.43262 10 9.43262C9.20435 9.43262 8.44129 9.11655 7.87868 8.55394C7.31607 7.99133 7 7.22827 7 6.43262ZM5.009 11.4326C4.74564 11.4316 4.48466 11.4825 4.24102 11.5825C3.99739 11.6826 3.7759 11.8297 3.58926 12.0155C3.40261 12.2013 3.25448 12.4221 3.15337 12.6653C3.05225 12.9085 3.00013 13.1693 3 13.4326C3 15.1236 3.833 16.3986 5.135 17.2296C6.417 18.0466 8.145 18.4326 10 18.4326C11.855 18.4326 13.583 18.0466 14.865 17.2296C16.167 16.3996 17 15.1226 17 13.4326C17 12.9022 16.7893 12.3935 16.4142 12.0184C16.0391 11.6433 15.5304 11.4326 15 11.4326H5.009ZM4 13.4326C4 12.8796 4.448 12.4326 5.009 12.4326H15C15.2652 12.4326 15.5196 12.538 15.7071 12.7255C15.8946 12.913 16 13.1674 16 13.4326C16 14.7416 15.378 15.7166 14.327 16.3856C13.257 17.0686 11.735 17.4326 10 17.4326C8.265 17.4326 6.743 17.0686 5.673 16.3856C4.623 15.7156 4 14.7426 4 13.4326Z" fill="black"/>
</svg>
