<svg width="24" height="25" viewBox="0 0 24 25" fill="none" xmlns="http://www.w3.org/2000/svg">
<path d="M19.506 8.11137C18.7928 10.894 17.3448 13.4338 15.3136 15.465C13.2824 17.4962 10.7426 18.9442 7.96 19.6574C5.819 20.2024 4 18.3614 4 16.1514V15.1514C4 14.5994 4.449 14.1564 4.998 14.1014C5.90852 14.0116 6.80229 13.7966 7.654 13.4624L9.174 14.9824C11.6489 13.796 13.6447 11.8003 14.831 9.32537L13.311 7.80537C13.6456 6.95371 13.8609 6.05994 13.951 5.14937C14.005 4.59937 14.448 4.15137 15 4.15137H16C18.21 4.15137 20.051 5.97037 19.506 8.11137Z" stroke="black" stroke-linecap="round" stroke-linejoin="round"/>
</svg>
