<svg width="32" height="25" viewBox="0 0 32 25" fill="none" xmlns="http://www.w3.org/2000/svg">
<path d="M10.0247 19.5556L3.50041 13.0314C3.14886 12.6798 2.67205 12.4823 2.17488 12.4823C1.67771 12.4823 1.2009 12.6798 0.849347 13.0314C0.497793 13.3829 0.300293 13.8597 0.300293 14.3569C0.300293 14.6031 0.348781 14.8468 0.442988 15.0743C0.537194 15.3017 0.675275 15.5084 0.849347 15.6824L8.70853 23.5416C9.44181 24.2749 10.6263 24.2749 11.3596 23.5416L31.252 3.64923C31.6035 3.29768 31.801 2.82087 31.801 2.3237C31.801 1.82653 31.6035 1.34972 31.252 0.99817C30.9004 0.646617 30.4236 0.449116 29.9265 0.449116C29.4293 0.449116 28.9525 0.646617 28.6009 0.99817L10.0247 19.5556Z" fill="white"/>
</svg>
