<svg width="24" height="25" viewBox="0 0 24 25" fill="none" xmlns="http://www.w3.org/2000/svg">
<path d="M17.4176 14.347L14.4176 12.847C14.3586 12.8176 14.2928 12.8042 14.227 12.8084C14.1611 12.8125 14.0975 12.8339 14.0426 12.8704L12.4826 13.9111C11.6251 13.4998 10.9335 12.8083 10.5223 11.9507L11.5629 10.3907C11.5995 10.3358 11.6209 10.2722 11.625 10.2064C11.6291 10.1405 11.6158 10.0748 11.5864 10.0157L10.0864 7.01574C10.0552 6.95312 10.0072 6.90045 9.94776 6.86367C9.88829 6.8269 9.81971 6.80748 9.74979 6.80762C8.85468 6.80762 7.99624 7.1632 7.3633 7.79613C6.73037 8.42907 6.37479 9.28751 6.37479 10.1826C6.37702 12.2705 7.20743 14.2723 8.68379 15.7486C10.1602 17.225 12.1619 18.0554 14.2498 18.0576C15.1449 18.0576 16.0033 17.702 16.6363 17.0691C17.2692 16.4362 17.6248 15.5777 17.6248 14.6826C17.6248 14.613 17.6055 14.5446 17.5689 14.4854C17.5323 14.4261 17.4799 14.3782 17.4176 14.347ZM14.2498 17.3076C12.3607 17.3056 10.5496 16.5543 9.21385 15.2186C7.87808 13.8828 7.12677 12.0717 7.12479 10.1826C7.12468 9.52562 7.37094 8.89247 7.81493 8.4082C8.25893 7.92394 8.86838 7.62378 9.52291 7.56699L10.8167 10.1554L9.78541 11.7061C9.75104 11.7572 9.72981 11.8161 9.7236 11.8774C9.71738 11.9387 9.72638 12.0006 9.74979 12.0576C10.248 13.2421 11.1903 14.1844 12.3748 14.6826C12.4319 14.7063 12.4939 14.7156 12.5554 14.7095C12.6169 14.7035 12.6759 14.6823 12.7273 14.6479L14.2779 13.6167L16.8664 14.9104C16.8093 15.565 16.5089 16.1743 16.0245 16.6181C15.5401 17.062 14.9068 17.308 14.2498 17.3076ZM11.9998 3.05762C10.3677 3.05731 8.76377 3.4831 7.34671 4.29286C5.92965 5.10262 4.74853 6.26829 3.9202 7.67457C3.09186 9.08086 2.64501 10.679 2.62384 12.311C2.60266 13.943 3.0079 15.5522 3.79948 16.9795L2.68385 20.3254C2.61775 20.5237 2.60815 20.7364 2.65615 20.9397C2.70414 21.1431 2.80782 21.3291 2.95558 21.4768C3.10333 21.6246 3.28931 21.7283 3.49268 21.7763C3.69604 21.8243 3.90876 21.8147 4.10698 21.7486L7.45291 20.6329C8.70453 21.3264 10.0983 21.7242 11.5274 21.7959C12.9565 21.8675 14.383 21.611 15.6977 21.0461C17.0124 20.4812 18.1803 19.6229 19.112 18.5369C20.0437 17.4509 20.7144 16.166 21.0728 14.7807C21.4312 13.3954 21.4677 11.9465 21.1796 10.5449C20.8915 9.14326 20.2864 7.82622 19.4106 6.69464C18.5348 5.56305 17.4116 4.64696 16.127 4.01653C14.8425 3.38611 13.4307 3.0581 11.9998 3.05762ZM11.9998 21.0576C10.4834 21.0581 8.9936 20.6587 7.68073 19.8998C7.62367 19.867 7.55906 19.8495 7.49323 19.8492C7.45273 19.8492 7.4125 19.8558 7.37416 19.8689L3.86979 21.037C3.80372 21.059 3.73281 21.0622 3.66502 21.0462C3.59723 21.0302 3.53524 20.9957 3.48599 20.9464C3.43674 20.8972 3.40218 20.8352 3.38618 20.7674C3.37018 20.6996 3.37338 20.6287 3.39541 20.5626L4.56354 17.0582C4.58039 17.0079 4.58634 16.9545 4.58101 16.9016C4.57568 16.8488 4.55918 16.7977 4.5326 16.7517C3.5817 15.108 3.19981 13.1965 3.44618 11.3136C3.69255 9.43072 4.5534 7.68179 5.8952 6.33811C7.23699 4.99443 8.98471 4.13112 10.8672 3.8821C12.7498 3.63308 14.6618 4.01228 16.3068 4.96088C17.9519 5.90947 19.2378 7.37442 19.9653 9.12847C20.6927 10.8825 20.821 12.8276 20.3302 14.662C19.8393 16.4964 18.7569 18.1175 17.2506 19.2739C15.7444 20.4303 13.8987 21.0573 11.9998 21.0576Z" fill="black"/>
</svg>
